<?xml version="1.0" encoding="UTF-8"?>
<svg width="190px" height="64px" viewBox="0 0 190 64" version="1.1" xmlns="http://www.w3.org/2000/svg" xmlns:xlink="http://www.w3.org/1999/xlink">
    <!-- Generator: Sketch 56.2 (81672) - https://sketch.com -->
    <title>Group 2</title>
    <desc>Created with Sketch.</desc>
    <g id="Page-1" stroke="none" stroke-width="1" fill="none" fill-rule="evenodd">
        <g id="Group-2" transform="translate(0.000000, 0.216264)" fill="#FF4741">
            <polygon id="Path" points="0 0.783736151 18.4294997 63.3722153 35.9125157 63.3722153 47.053578 28.7781078 59.1744688 63.3722153 75.3390767 63.3722153 95.2303331 0.783736151 79.1840064 0.783736151 67.6851272 39.6729303 54.2240256 0.783736151 41.8175974 0.783736151 28.2612648 39.6729303 18.4294997 0.783736151"></polygon>
            <polygon id="Path-2" points="91.4385487 19.6068814 97.376069 0.783736151 109.312294 17.0121247 120.869346 0.783736151 140.19257 0.783736151 118.47107 32.0779757 118.47107 63.3722153 100.775709 63.3722153 100.775709 33.5647937"></polygon>
            <g id="Group" transform="translate(137.173405, 0.000000)">
                <path d="M0.730333147,63.3722153 L0.730333147,7.14325939 L5.58203694,0.783736151 C17.7548698,0.241204963 25.9335383,0.241204963 30.1180423,0.783736151 C36.3947983,1.59753293 39.7845209,3.35181019 42.2667653,5.54000097 C47.3215586,9.9959892 46.9873279,15.8211134 47.1894903,18.8183718 C47.3916526,21.8156302 47.4095625,27.9943114 42.2667653,33.1739173 C40.9389386,34.5112478 37.7169403,35.9841606 32.6007703,37.5926558 L52.2540486,63.3722153 L32.6007703,63.3722153 L17.1304708,40.1236423 L17.1304708,63.3722153 L0.730333147,63.3722153 Z M16.8586502,28.472378 C21.7213839,28.4423231 24.9325641,27.9623753 26.4921909,27.0325346 C28.0518176,26.102694 29.0592367,24.0675369 29.5144479,20.9270633 C28.9118965,17.6075771 27.9044775,15.5268354 26.4921909,14.6848382 C25.0799043,13.842841 21.868724,13.4084777 16.8586502,13.3817486 L16.8586502,28.472378 Z" id="Combined-Shape"></path>
            </g>
        </g>
    </g>
</svg>